<?xml version="1.0" standalone="no"?>
<!DOCTYPE svg PUBLIC "-//W3C//DTD SVG 1.1//EN" "http://www.w3.org/Graphics/SVG/1.1/DTD/svg11.dtd">
<svg t="1774499781741" class="icon" viewBox="0 0 1024 1024" version="1.1" xmlns="http://www.w3.org/2000/svg" p-id="7897" xmlns:xlink="http://www.w3.org/1999/xlink" width="200" height="200">
<path d="M118.81813333 106.3936c87.27893333-26.2144 192.03413333 75.1616 358.46826667 346.9312 18.70506667 30.5152 34.7136 55.46666667 35.60106667 55.5008 0.88746667 0 17.74933333-26.4192 37.41013333-58.70933333 165.51253333-271.53066667 270.336-371.3024 359.35573333-342.08426667 56.55893333 18.56853333 80.41813333 73.18186667 80.21333334 183.63733333-0.4096 214.86933333-103.69706667 551.59466667-188.0064 612.89813334-69.4272 50.44906667-173.1584-13.07306667-269.85813334-165.30773334-9.59146667-15.1552-18.36373333-27.57973333-19.42186666-27.61386666-1.05813333 0-9.59146667 12.32213333-18.944 27.4432-50.96106667 82.39786667-113.4592 146.26133333-167.04853334 170.7008-26.04373333 11.8784-71.33866667 13.5168-90.45333333 3.24266666-52.08746667-27.98933333-110.72853333-149.504-156.16-323.72053333C7.3728 310.95466667 21.504 135.68 118.81813333 106.3936zM848.31573333 217.088c-55.26186667 42.93973333-126.49813333 138.58133333-230.8096 309.93066667l-49.2544 80.82773333 16.86186667 30.17386667c42.35946667 75.94666667 91.30666667 139.81013333 130.79893333 170.66666666 26.76053333 20.95786667 35.60106667 16.55466667 58.9824-29.4912 73.5232-144.55466667 136.192-440.7296 115.712-547.19146666-6.144-32.0512-15.80373333-35.46453333-42.2912-14.91626667zM143.73546667 207.9744c-19.72906667 19.49013333-14.60906667 145.8176 10.99093333 271.90613333 30.89066667 152.23466667 95.91466667 329.3184 124.5184 339.2512 27.81866667 9.65973333 104.31146667-77.824 164.38613333-188.0064l13.14133334-24.13226666-42.15466667-69.18826667c-112.98133333-185.344-186.64106667-284.3648-240.8448-323.72053333-16.65706667-12.0832-22.7328-13.312-30.03733333-6.10986667z" fill="#FF9908" p-id="7898"></path>
</svg>
